<?xml version="1.0" encoding="UTF-8" standalone="no"?>
<!DOCTYPE svg PUBLIC "-//W3C//DTD SVG 1.1//EN"
 "http://www.w3.org/Graphics/SVG/1.1/DTD/svg11.dtd">
<!-- Generated by graphviz version 2.40.1 (20161225.0304)
 -->
<!-- Title: %3 Pages: 1 -->
<svg width="880pt" height="231pt"
 viewBox="0.00 0.00 880.20 231.00" xmlns="http://www.w3.org/2000/svg" xmlns:xlink="http://www.w3.org/1999/xlink">
<g id="graph0" class="graph" transform="scale(1 1) rotate(0) translate(4 227)">
<title>%3</title>
<polygon fill="#3f3f3f" stroke="transparent" points="-4,4 -4,-227 876.1977,-227 876.1977,4 -4,4"/>
<text text-anchor="middle" x="436.0989" y="-9.2" font-family="Times,serif" font-size="16.00" fill="#ffffff">Network Map</text>
<!-- R3 -->
<g id="node1" class="node">
<title>R3</title>
<polygon fill="#006699" stroke="#006699" points="95.1977,-99 19.1977,-99 19.1977,-26 95.1977,-26 95.1977,-99"/>
<text text-anchor="middle" x="57.1977" y="-58.8" font-family="Helvetica,sans-Serif" font-size="14.00" fill="#ffffff">R3</text>
</g>
<!-- SW1 -->
<g id="node6" class="node">
<title>SW1</title>
<polygon fill="#006699" stroke="#006699" points="286.6977,-223 197.6977,-223 197.6977,-150 286.6977,-150 286.6977,-223"/>
<text text-anchor="middle" x="242.1977" y="-182.8" font-family="Helvetica,sans-Serif" font-size="14.00" fill="#ffffff">SW1</text>
</g>
<!-- R3&#45;&#45;SW1 -->
<g id="edge5" class="edge">
<title>R3&#45;&#45;SW1</title>
<path fill="none" stroke="#00ff00" stroke-dasharray="5,2" d="M58,-99.0026C59.9689,-110.7536 64.0716,-123.0388 72.1977,-132 89.1137,-150.6545 153.052,-167.5861 197.5004,-177.4656"/>
<text text-anchor="middle" x="122.1977" y="-120.8" font-family="Courier,monospace" font-size="14.00" fill="#ffffff"> &#160;&#160;&#160;&#160;&#160;&#160;&#160;&#160;&#160;&#160;&#160;</text>
<text text-anchor="middle" x="168.5004" y="-166.2656" font-family="Courier,monospace" font-size="14.00" fill="#ffffff">Eth 0/3</text>
<text text-anchor="middle" x="29" y="-102.8026" font-family="Courier,monospace" font-size="14.00" fill="#ffffff">Eth 0/0</text>
</g>
<!-- R6 -->
<g id="node2" class="node">
<title>R6</title>
<polygon fill="#006699" stroke="#006699" points="833.1977,-223 757.1977,-223 757.1977,-150 833.1977,-150 833.1977,-223"/>
<text text-anchor="middle" x="795.1977" y="-182.8" font-family="Helvetica,sans-Serif" font-size="14.00" fill="#ffffff">R6</text>
</g>
<!-- R5 -->
<g id="node3" class="node">
<title>R5</title>
<polygon fill="#006699" stroke="#006699" points="587.1977,-223 511.1977,-223 511.1977,-150 587.1977,-150 587.1977,-223"/>
<text text-anchor="middle" x="549.1977" y="-182.8" font-family="Helvetica,sans-Serif" font-size="14.00" fill="#ffffff">R5</text>
</g>
<!-- R2 -->
<g id="node4" class="node">
<title>R2</title>
<polygon fill="#006699" stroke="#006699" points="710.1977,-99 634.1977,-99 634.1977,-26 710.1977,-26 710.1977,-99"/>
<text text-anchor="middle" x="672.1977" y="-58.8" font-family="Helvetica,sans-Serif" font-size="14.00" fill="#ffffff">R2</text>
</g>
<!-- R2&#45;&#45;R6 -->
<g id="edge4" class="edge">
<title>R2&#45;&#45;R6</title>
<path fill="none" stroke="#00ff00" stroke-dasharray="5,2" d="M710.3114,-79.2293C727.8388,-88.3963 747.8692,-101.1429 762.1977,-117 770.7051,-126.4149 777.4428,-138.4131 782.5528,-149.7807"/>
<text text-anchor="middle" x="822.1977" y="-120.8" font-family="Courier,monospace" font-size="14.00" fill="#ffffff"> &#160;&#160;&#160;&#160;&#160;&#160;&#160;&#160;&#160;&#160;&#160;</text>
<text text-anchor="middle" x="753.5528" y="-138.5807" font-family="Courier,monospace" font-size="14.00" fill="#ffffff">Eth 0/1</text>
<text text-anchor="middle" x="739.3114" y="-68.0293" font-family="Courier,monospace" font-size="14.00" fill="#ffffff">Eth 0/2</text>
</g>
<!-- R2&#45;&#45;R5 -->
<g id="edge3" class="edge">
<title>R2&#45;&#45;R5</title>
<path fill="none" stroke="#00ff00" stroke-dasharray="5,2" d="M666.2356,-99.0402C662.9736,-110.5257 657.9434,-122.6393 650.1977,-132 633.9388,-151.6489 608.6888,-165.2739 587.5035,-173.9867"/>
<text text-anchor="middle" x="708.1977" y="-120.8" font-family="Courier,monospace" font-size="14.00" fill="#ffffff"> &#160;&#160;&#160;&#160;&#160;&#160;&#160;&#160;&#160;&#160;&#160;</text>
<text text-anchor="middle" x="616.5035" y="-162.7867" font-family="Courier,monospace" font-size="14.00" fill="#ffffff">Eth 0/0</text>
<text text-anchor="middle" x="637.2356" y="-102.8402" font-family="Courier,monospace" font-size="14.00" fill="#ffffff">Eth 0/1</text>
</g>
<!-- R2&#45;&#45;SW1 -->
<g id="edge2" class="edge">
<title>R2&#45;&#45;SW1</title>
<path fill="none" stroke="#00ff00" stroke-dasharray="5,2" d="M634.0047,-76.0299C608.347,-85.8296 574.2328,-100.261 546.1977,-117 536.9602,-122.5155 536.9833,-127.5285 527.1977,-132 447.5876,-168.3778 344.7571,-180.4809 286.8984,-184.503"/>
<text text-anchor="middle" x="596.1977" y="-120.8" font-family="Courier,monospace" font-size="14.00" fill="#ffffff"> &#160;&#160;&#160;&#160;&#160;&#160;&#160;&#160;&#160;&#160;&#160;</text>
<text text-anchor="middle" x="315.8984" y="-173.303" font-family="Courier,monospace" font-size="14.00" fill="#ffffff">Eth 0/2</text>
<text text-anchor="middle" x="605.0047" y="-64.8299" font-family="Courier,monospace" font-size="14.00" fill="#ffffff">Eth 0/0</text>
</g>
<!-- R1 -->
<g id="node5" class="node">
<title>R1</title>
<polygon fill="#006699" stroke="#006699" points="218.1977,-99 142.1977,-99 142.1977,-26 218.1977,-26 218.1977,-99"/>
<text text-anchor="middle" x="180.1977" y="-58.8" font-family="Helvetica,sans-Serif" font-size="14.00" fill="#ffffff">R1</text>
</g>
<!-- R1&#45;&#45;SW1 -->
<g id="edge1" class="edge">
<title>R1&#45;&#45;SW1</title>
<path fill="none" stroke="#00ff00" stroke-dasharray="5,2" d="M175.2299,-99.088C175.1647,-110.0829 176.5898,-121.8996 181.1977,-132 185.029,-140.3983 190.8473,-148.0453 197.3966,-154.7812"/>
<text text-anchor="middle" x="231.1977" y="-120.8" font-family="Courier,monospace" font-size="14.00" fill="#ffffff"> &#160;&#160;&#160;&#160;&#160;&#160;&#160;&#160;&#160;&#160;&#160;</text>
<text text-anchor="middle" x="168.3966" y="-143.5812" font-family="Courier,monospace" font-size="14.00" fill="#ffffff">Eth 0/1</text>
<text text-anchor="middle" x="146.2299" y="-102.888" font-family="Courier,monospace" font-size="14.00" fill="#ffffff">Eth 0/0</text>
</g>
<!-- R4 -->
<g id="node7" class="node">
<title>R4</title>
<polygon fill="#006699" stroke="#006699" points="402.1977,-99 326.1977,-99 326.1977,-26 402.1977,-26 402.1977,-99"/>
<text text-anchor="middle" x="364.1977" y="-58.8" font-family="Helvetica,sans-Serif" font-size="14.00" fill="#ffffff">R4</text>
</g>
<!-- R4&#45;&#45;R5 -->
<g id="edge7" class="edge">
<title>R4&#45;&#45;R5</title>
<path fill="none" stroke="#00ff00" stroke-dasharray="5,2" d="M392.4307,-99.2564C402.516,-110.7563 414.5399,-122.8238 427.1977,-132 452.8348,-150.5854 485.8176,-164.8459 511.0239,-174.1096"/>
<text text-anchor="middle" x="477.1977" y="-120.8" font-family="Courier,monospace" font-size="14.00" fill="#ffffff"> &#160;&#160;&#160;&#160;&#160;&#160;&#160;&#160;&#160;&#160;&#160;</text>
<text text-anchor="middle" x="482.0239" y="-162.9096" font-family="Courier,monospace" font-size="14.00" fill="#ffffff">Eth 0/1</text>
<text text-anchor="middle" x="363.4307" y="-103.0564" font-family="Courier,monospace" font-size="14.00" fill="#ffffff">Eth 0/1</text>
</g>
<!-- R4&#45;&#45;SW1 -->
<g id="edge6" class="edge">
<title>R4&#45;&#45;SW1</title>
<path fill="none" stroke="#00ff00" stroke-dasharray="5,2" d="M326.1841,-95.9234C318.76,-102.7581 311.1319,-110.0033 304.1977,-117 293.9539,-127.3362 283.2497,-138.9947 273.6751,-149.7682"/>
<text text-anchor="middle" x="354.1977" y="-120.8" font-family="Courier,monospace" font-size="14.00" fill="#ffffff"> &#160;&#160;&#160;&#160;&#160;&#160;&#160;&#160;&#160;&#160;&#160;</text>
<text text-anchor="middle" x="244.6751" y="-138.5682" font-family="Courier,monospace" font-size="14.00" fill="#ffffff">Eth 0/4</text>
<text text-anchor="middle" x="297.1841" y="-84.7234" font-family="Courier,monospace" font-size="14.00" fill="#ffffff">Eth 0/0</text>
</g>
</g>
</svg>
