<?xml version="1.0" encoding="UTF-8" standalone="no"?>
<!DOCTYPE svg PUBLIC "-//W3C//DTD SVG 1.1//EN"
 "http://www.w3.org/Graphics/SVG/1.1/DTD/svg11.dtd">
<!-- Generated by graphviz version 2.40.1 (20161225.0304)
 -->
<!-- Title: %3 Pages: 1 -->
<svg width="503pt" height="355pt"
 viewBox="0.00 0.00 503.13 355.00" xmlns="http://www.w3.org/2000/svg" xmlns:xlink="http://www.w3.org/1999/xlink">
<g id="graph0" class="graph" transform="scale(1 1) rotate(0) translate(4 351)">
<title>%3</title>
<polygon fill="#333333" stroke="transparent" points="-4,4 -4,-351 499.1279,-351 499.1279,4 -4,4"/>
<text text-anchor="middle" x="247.564" y="-9.2" font-family="Times,serif" font-size="16.00" fill="#ffffff">Network Map</text>
<!-- R2 -->
<g id="node1" class="node">
<title>R2</title>
<polygon fill="#006699" stroke="#006699" points="87.1279,-223 11.1279,-223 11.1279,-150 87.1279,-150 87.1279,-223"/>
<text text-anchor="middle" x="49.1279" y="-182.8" font-family="Helvetica,sans-Serif" font-size="14.00" fill="#ffffff">R2</text>
</g>
<!-- SW1 -->
<g id="node2" class="node">
<title>SW1</title>
<polygon fill="#006699" stroke="#006699" points="277.6279,-99 188.6279,-99 188.6279,-26 277.6279,-26 277.6279,-99"/>
<text text-anchor="middle" x="233.1279" y="-58.8" font-family="Helvetica,sans-Serif" font-size="14.00" fill="#ffffff">SW1</text>
</g>
<!-- SW1&#45;&#45;R2 -->
<g id="edge4" class="edge">
<title>SW1&#45;&#45;R2</title>
<path fill="none" stroke="#00ff00" stroke-dasharray="5,2" d="M188.2824,-71.6601C144.111,-81.5804 80.8861,-98.4877 64.1279,-117 56.0924,-125.8766 51.9928,-138.0046 50,-149.6455"/>
<text text-anchor="middle" x="114.1279" y="-120.8" font-family="Courier,monospace" font-size="14.00" fill="#ffffff"> &#160;&#160;&#160;&#160;&#160;&#160;&#160;&#160;&#160;&#160;&#160;</text>
<text text-anchor="middle" x="25" y="-138.4455" font-family="Courier,monospace" font-size="14.00" fill="#ffffff">Eth0/0</text>
<text text-anchor="middle" x="163.2824" y="-60.4601" font-family="Courier,monospace" font-size="14.00" fill="#ffffff">Eth0/2</text>
</g>
<!-- R3 -->
<g id="node3" class="node">
<title>R3</title>
<polygon fill="#006699" stroke="#006699" points="210.1279,-223 134.1279,-223 134.1279,-150 210.1279,-150 210.1279,-223"/>
<text text-anchor="middle" x="172.1279" y="-182.8" font-family="Helvetica,sans-Serif" font-size="14.00" fill="#ffffff">R3</text>
</g>
<!-- SW1&#45;&#45;R3 -->
<g id="edge5" class="edge">
<title>SW1&#45;&#45;R3</title>
<path fill="none" stroke="#00ff00" stroke-dasharray="5,2" d="M188.4584,-94.9436C182.2599,-101.5148 176.7745,-108.919 173.1279,-117 168.5616,-127.1193 167.1482,-138.9413 167.2113,-149.9353"/>
<text text-anchor="middle" x="223.1279" y="-120.8" font-family="Courier,monospace" font-size="14.00" fill="#ffffff"> &#160;&#160;&#160;&#160;&#160;&#160;&#160;&#160;&#160;&#160;&#160;</text>
<text text-anchor="middle" x="142.2113" y="-138.7353" font-family="Courier,monospace" font-size="14.00" fill="#ffffff">Eth0/0</text>
<text text-anchor="middle" x="163.4584" y="-83.7436" font-family="Courier,monospace" font-size="14.00" fill="#ffffff">Eth0/3</text>
</g>
<!-- R1 -->
<g id="node6" class="node">
<title>R1</title>
<polygon fill="#006699" stroke="#006699" points="333.1279,-223 257.1279,-223 257.1279,-150 333.1279,-150 333.1279,-223"/>
<text text-anchor="middle" x="295.1279" y="-182.8" font-family="Helvetica,sans-Serif" font-size="14.00" fill="#ffffff">R1</text>
</g>
<!-- SW1&#45;&#45;R1 -->
<g id="edge3" class="edge">
<title>SW1&#45;&#45;R1</title>
<path fill="none" stroke="#00ff00" stroke-dasharray="5,2" d="M262.5711,-99.2843C266.4359,-105.0244 270.099,-111.035 273.1279,-117 278.3424,-127.269 282.6295,-139.0192 285.9898,-149.9001"/>
<text text-anchor="middle" x="329.1279" y="-120.8" font-family="Courier,monospace" font-size="14.00" fill="#ffffff"> &#160;&#160;&#160;&#160;&#160;&#160;&#160;&#160;&#160;&#160;&#160;</text>
<text text-anchor="middle" x="260.9898" y="-138.7001" font-family="Courier,monospace" font-size="14.00" fill="#ffffff">Eth0/0</text>
<text text-anchor="middle" x="237.5711" y="-103.0843" font-family="Courier,monospace" font-size="14.00" fill="#ffffff">Eth0/1</text>
</g>
<!-- R6 -->
<g id="node7" class="node">
<title>R6</title>
<polygon fill="#006699" stroke="#006699" points="456.1279,-223 380.1279,-223 380.1279,-150 456.1279,-150 456.1279,-223"/>
<text text-anchor="middle" x="418.1279" y="-182.8" font-family="Helvetica,sans-Serif" font-size="14.00" fill="#ffffff">R6</text>
</g>
<!-- SW1&#45;&#45;R6 -->
<g id="edge6" class="edge">
<title>SW1&#45;&#45;R6</title>
<path fill="none" stroke="#00ff00" stroke-dasharray="5,2" d="M277.6912,-69.6C310.1749,-76.7628 353.5079,-90.6844 383.1279,-117 393.0254,-125.7933 400.4743,-138.0391 405.8987,-149.8055"/>
<text text-anchor="middle" x="445.1279" y="-120.8" font-family="Courier,monospace" font-size="14.00" fill="#ffffff"> &#160;&#160;&#160;&#160;&#160;&#160;&#160;&#160;&#160;&#160;&#160;</text>
<text text-anchor="middle" x="380.8987" y="-138.6055" font-family="Courier,monospace" font-size="14.00" fill="#ffffff">Eth0/1</text>
<text text-anchor="middle" x="302.6912" y="-58.4" font-family="Courier,monospace" font-size="14.00" fill="#ffffff">Eth0/5</text>
</g>
<!-- R5 -->
<g id="node4" class="node">
<title>R5</title>
<polygon fill="#006699" stroke="#006699" points="148.1279,-347 72.1279,-347 72.1279,-274 148.1279,-274 148.1279,-347"/>
<text text-anchor="middle" x="110.1279" y="-306.8" font-family="Helvetica,sans-Serif" font-size="14.00" fill="#ffffff">R5</text>
</g>
<!-- R3&#45;&#45;R5 -->
<g id="edge2" class="edge">
<title>R3&#45;&#45;R5</title>
<path fill="none" stroke="#00ff00" stroke-dasharray="5,2" d="M134.0144,-209.2812C123.2989,-217.7748 112.9806,-228.4551 107.1279,-241 102.4303,-251.0691 101.4966,-262.877 102.2281,-273.8735"/>
<text text-anchor="middle" x="157.1279" y="-244.8" font-family="Courier,monospace" font-size="14.00" fill="#ffffff"> &#160;&#160;&#160;&#160;&#160;&#160;&#160;&#160;&#160;&#160;&#160;</text>
<text text-anchor="middle" x="77.2281" y="-262.6735" font-family="Courier,monospace" font-size="14.00" fill="#ffffff">Eth0/0</text>
<text text-anchor="middle" x="109.0144" y="-213.0812" font-family="Courier,monospace" font-size="14.00" fill="#ffffff">Eth0/2</text>
</g>
<!-- R4 -->
<g id="node5" class="node">
<title>R4</title>
<polygon fill="#006699" stroke="#006699" points="271.1279,-347 195.1279,-347 195.1279,-274 271.1279,-274 271.1279,-347"/>
<text text-anchor="middle" x="233.1279" y="-306.8" font-family="Helvetica,sans-Serif" font-size="14.00" fill="#ffffff">R4</text>
</g>
<!-- R3&#45;&#45;R4 -->
<g id="edge1" class="edge">
<title>R3&#45;&#45;R4</title>
<path fill="none" stroke="#00ff00" stroke-dasharray="5,2" d="M200.6113,-223.0442C204.4559,-228.8668 208.1089,-234.9648 211.1279,-241 216.2805,-251.3001 220.5498,-263.0594 223.9127,-273.9389"/>
<text text-anchor="middle" x="267.1279" y="-244.8" font-family="Courier,monospace" font-size="14.00" fill="#ffffff"> &#160;&#160;&#160;&#160;&#160;&#160;&#160;&#160;&#160;&#160;&#160;</text>
<text text-anchor="middle" x="198.9127" y="-262.7389" font-family="Courier,monospace" font-size="14.00" fill="#ffffff">Eth0/0</text>
<text text-anchor="middle" x="175.6113" y="-226.8442" font-family="Courier,monospace" font-size="14.00" fill="#ffffff">Eth0/1</text>
</g>
</g>
</svg>
